<?xml version="1.0" standalone="no"?>
<!DOCTYPE svg PUBLIC "-//W3C//DTD SVG 20010904//EN"
 "http://www.w3.org/TR/2001/REC-SVG-20010904/DTD/svg10.dtd">
<svg version="1.0" xmlns="http://www.w3.org/2000/svg"
 width="1342.000000pt" height="1342.000000pt" viewBox="0 0 1342.000000 1342.000000"
 preserveAspectRatio="xMidYMid meet">
<metadata>
Created by potrace 1.11, written by Peter Selinger 2001-2013
</metadata>
<g transform="translate(0.000000,1342.000000) scale(0.100000,-0.100000)"
fill="#000000" stroke="none">
<path d="M5356 13232 c-9 -8 22 -71 49 -99 14 -16 45 -53 68 -83 54 -71 179
-229 203 -257 11 -12 28 -34 39 -49 11 -15 64 -82 119 -148 54 -67 111 -137
127 -156 85 -104 199 -265 190 -268 -12 -4 -110 26 -126 39 -6 4 -40 13 -75
19 -92 16 -105 18 -105 20 0 2 -55 8 -135 14 -41 3 -86 8 -100 11 -14 3 -63 5
-110 5 -226 -4 -418 -10 -450 -14 -19 -3 -49 -7 -66 -10 -16 -2 -48 -9 -70
-15 -21 -5 -51 -13 -66 -16 -20 -4 -28 -12 -28 -26 0 -30 162 -191 231 -231
32 -18 59 -37 59 -41 0 -11 -57 -34 -105 -41 -40 -6 -144 -35 -220 -61 -22 -7
-56 -17 -75 -20 -19 -4 -47 -13 -61 -21 -15 -7 -42 -16 -60 -19 -45 -8 -180
-45 -198 -55 -8 -4 -16 -15 -17 -23 -3 -25 51 -37 181 -37 66 -1 147 -3 180
-6 33 -2 141 -6 240 -7 147 -2 180 -5 180 -16 0 -8 -17 -20 -38 -27 -21 -7
-68 -28 -105 -45 -143 -67 -324 -151 -402 -187 -25 -11 -92 -42 -150 -70 -58
-27 -116 -53 -130 -57 -14 -4 -37 -18 -52 -31 -16 -12 -37 -25 -48 -29 -11 -3
-20 -10 -20 -15 0 -4 -21 -21 -47 -36 -27 -15 -86 -53 -132 -83 -46 -31 -127
-84 -180 -118 -53 -34 -106 -70 -119 -80 -13 -9 -32 -22 -42 -27 -123 -71
-278 -196 -445 -361 -51 -50 -224 -283 -261 -350 -16 -29 -54 -96 -73 -127 -9
-14 -44 -73 -79 -130 -61 -100 -241 -458 -257 -508 -4 -14 -13 -38 -19 -55 -7
-16 -25 -82 -40 -145 -15 -63 -32 -133 -37 -154 -6 -22 -12 -48 -14 -58 -2
-11 -6 -27 -9 -36 -3 -9 -8 -37 -11 -62 -3 -25 -10 -67 -16 -93 -20 -86 -16
-392 6 -577 2 -19 7 -75 10 -125 6 -99 15 -197 20 -205 2 -3 6 -34 10 -69 4
-34 8 -72 11 -84 2 -12 7 -51 9 -87 9 -106 23 -180 52 -270 8 -25 20 -68 27
-96 15 -57 57 -154 68 -154 3 0 9 -13 13 -30 4 -16 11 -33 16 -36 9 -5 30 -51
30 -64 0 -3 6 -12 12 -20 16 -20 37 -57 62 -106 11 -23 46 -72 79 -108 98
-112 101 -116 97 -178 -1 -21 -36 -24 -48 -5 -10 17 -76 61 -187 128 -118 69
-180 99 -241 115 -27 7 -67 19 -89 27 -51 19 -163 13 -188 -10 -19 -17 -19
-31 -4 -123 3 -14 7 -41 10 -60 3 -19 10 -51 16 -70 11 -33 16 -58 25 -107 2
-13 6 -27 10 -33 3 -5 8 -18 10 -27 22 -108 85 -314 122 -401 8 -18 16 -42 18
-54 3 -11 14 -38 25 -60 11 -21 20 -45 20 -53 0 -8 11 -39 25 -69 14 -30 25
-58 25 -62 0 -3 16 -40 35 -81 19 -41 35 -77 35 -79 0 -3 23 -53 52 -112 55
-115 107 -196 231 -364 83 -111 74 -103 312 -266 44 -30 127 -79 185 -108 58
-30 110 -57 115 -62 6 -4 37 -20 69 -36 l58 -30 -6 -200 c-8 -252 -17 -379
-31 -456 -6 -38 -14 -124 -21 -240 -11 -193 -12 -215 -19 -252 -4 -20 -5 -44
-2 -53 10 -25 67 9 97 58 20 33 78 107 135 174 18 22 30 37 73 93 107 140 136
170 148 157 6 -5 -24 -78 -40 -97 -7 -8 -20 -34 -30 -58 -14 -38 -15 -46 -2
-71 14 -26 76 -65 101 -64 6 1 40 4 77 7 50 4 69 2 78 -9 7 -9 13 -82 16 -207
2 -106 6 -294 9 -418 9 -400 15 -437 66 -409 13 7 42 29 64 50 38 35 83 76
114 101 40 33 148 124 159 135 21 20 49 15 84 -15 18 -16 46 -40 62 -53 17
-13 50 -42 75 -65 26 -22 68 -58 96 -80 27 -21 63 -51 80 -66 16 -14 41 -36
55 -49 14 -12 77 -65 140 -117 63 -52 120 -100 125 -107 6 -6 48 -43 95 -81
47 -38 99 -81 115 -95 17 -15 73 -64 125 -110 82 -71 178 -159 214 -195 6 -7
27 -31 46 -55 101 -126 185 -182 290 -194 36 -4 74 -9 85 -11 108 -19 292 -22
580 -9 94 4 197 8 230 9 96 3 244 25 275 41 16 8 55 45 87 82 32 37 70 80 85
96 15 15 45 49 65 75 43 54 665 679 793 796 86 79 353 335 524 501 51 50 140
135 197 191 57 56 123 123 145 150 134 158 157 172 162 98 2 -22 10 -58 18
-82 8 -24 19 -76 24 -115 6 -39 17 -94 25 -121 8 -27 15 -66 15 -87 0 -41 42
-144 62 -151 7 -3 27 -1 45 4 25 6 34 16 44 46 6 20 16 46 22 57 6 11 12 45
14 75 2 30 10 78 18 106 8 28 17 68 20 90 3 21 7 53 10 69 3 17 7 75 11 130 3
55 7 116 9 135 7 65 8 257 1 268 -6 11 -12 59 -21 189 -2 39 -5 75 -6 80 -9
51 16 41 53 -23 31 -53 50 -84 98 -164 11 -19 29 -48 40 -65 11 -16 25 -41 32
-55 6 -14 19 -34 29 -45 9 -11 30 -45 46 -75 48 -89 171 -270 203 -300 7 -7
51 -61 77 -96 12 -16 36 -47 52 -69 17 -22 42 -56 55 -75 26 -40 67 -65 90
-57 17 7 14 35 -10 92 -8 21 -17 65 -20 98 -2 33 -6 63 -9 67 -2 4 -7 20 -9
36 -3 16 -8 40 -11 54 -3 14 -8 48 -10 76 -7 67 -12 89 -23 111 -5 10 -12 43
-15 73 -4 30 -9 69 -12 85 -3 17 -10 53 -15 80 -5 28 -12 68 -15 90 -3 22 -12
64 -20 95 -7 30 -16 78 -20 105 -9 75 -15 107 -25 140 -5 17 -14 66 -20 110
-7 44 -14 89 -16 100 -2 10 -6 37 -10 59 -3 22 -7 43 -9 46 -2 3 -6 31 -9 64
-4 32 -10 66 -15 75 -14 25 -23 98 -16 120 4 13 38 36 88 62 107 54 221 122
247 149 3 3 25 18 50 34 53 35 77 59 174 182 12 15 31 38 44 53 24 28 84 141
97 181 4 14 15 36 25 50 9 14 20 39 24 55 4 17 13 44 20 60 14 30 47 135 53
168 1 9 12 43 23 75 11 31 23 80 26 107 3 28 12 73 19 100 8 28 19 84 24 126
6 42 14 87 19 100 5 13 10 51 11 84 1 33 4 76 5 95 13 150 19 196 23 204 5 7
15 167 14 230 0 24 -5 29 -34 29 -24 0 -233 -99 -243 -115 -7 -11 -44 -10 -44
1 0 5 11 22 24 38 53 63 356 525 383 585 35 76 86 224 102 293 30 137 35 393
9 495 -9 36 -19 83 -22 105 -3 23 -12 61 -20 85 -8 25 -18 65 -22 90 -3 25
-12 59 -19 75 -7 17 -20 57 -28 90 -28 113 -48 180 -63 212 -7 17 -14 36 -14
42 0 6 -11 34 -24 63 -13 29 -34 78 -47 108 -13 30 -29 62 -35 70 -7 8 -15 27
-19 42 -4 14 -15 34 -26 44 -10 9 -19 23 -19 30 0 15 -148 309 -176 349 -11
17 -23 38 -27 47 -10 29 -178 292 -216 338 -20 24 -51 67 -69 94 -17 28 -58
78 -89 111 -196 209 -268 291 -309 351 -15 22 -39 54 -55 72 -16 18 -29 39
-29 47 0 7 -4 15 -8 17 -16 6 -103 148 -97 157 6 11 48 6 105 -12 43 -14 35
-12 95 -22 64 -10 70 -11 130 -25 28 -7 149 -14 270 -16 121 -2 274 -6 340 -9
66 -3 167 -7 225 -9 58 -2 121 -7 140 -10 71 -13 111 -12 131 2 20 14 20 15
-14 38 -38 25 -147 76 -147 68 0 -3 -10 2 -22 10 -12 9 -30 16 -39 16 -10 0
-19 3 -21 8 -2 4 -32 20 -68 37 -36 16 -82 40 -102 52 -21 13 -38 21 -38 17 0
-3 -17 3 -37 14 -53 27 -142 60 -178 65 -16 3 -61 16 -100 30 -68 23 -243 79
-315 100 -19 5 -52 18 -73 28 -22 11 -46 19 -55 19 -15 0 -71 20 -167 59 -21
9 -42 16 -45 16 -3 1 -27 11 -54 23 -27 12 -53 22 -57 22 -5 0 -28 9 -52 19
-23 11 -71 29 -107 41 -36 12 -92 35 -125 50 -147 69 -216 100 -222 100 -3 0
-179 86 -390 191 -211 105 -387 189 -390 186 -3 -3 -28 3 -57 13 -28 11 -82
27 -120 35 -120 28 -134 47 -44 59 28 4 59 11 68 16 17 9 42 15 111 25 52 7
63 10 75 18 6 3 36 13 65 21 111 31 195 56 239 70 146 48 207 66 226 66 23 0
64 34 64 53 0 7 -4 17 -8 24 -8 12 -167 70 -272 100 -30 8 -63 19 -73 25 -10
5 -114 11 -230 13 -180 4 -225 1 -297 -15 -47 -10 -110 -21 -140 -24 -30 -3
-76 -12 -102 -20 -27 -8 -48 -13 -48 -11 0 4 -74 -20 -155 -50 -38 -15 -88
-32 -110 -39 -55 -17 -81 -30 -145 -70 -30 -20 -73 -45 -95 -57 -22 -12 -90
-73 -152 -135 -62 -63 -114 -114 -116 -114 -2 0 -17 12 -33 26 -30 26 -110 80
-154 102 -64 34 -172 100 -180 112 -3 4 -14 10 -26 14 -21 6 -297 169 -323
189 -7 6 -19 12 -27 13 -7 1 -25 12 -40 23 -15 12 -32 21 -39 21 -6 0 -20 9
-30 20 -10 11 -23 20 -29 20 -10 0 -47 22 -176 105 -72 47 -172 105 -180 105
-5 0 -15 6 -22 14 -13 12 -58 38 -203 116 -93 49 -150 83 -166 96 -8 8 -21 14
-28 14 -14 0 -91 43 -136 75 -29 21 -80 37 -89 27z"/>
</g>
</svg>
